# AST/ASF file generated using VICON BodyLanguage
# -----------------------------------------------
:version 1.10
:name VICON
:units
  mass 1.0
  length 0.45
  angle deg
:documentation
   .ast/.asf automatically generated from VICON data using
   VICON BodyBuilder and BodyLanguage model FoxedUp or BRILLIANT.MOD
:root
   order TX TY TZ RX RY RZ
   axis XYZ
   position 0 0 0  
   orientation 0 0 0 
:bonedata
  begin
     id 1 
     name lhipjoint
     direction 0.611804 -0.747784 0.257906 
     length 2.29243 
     axis 0 0 0  XYZ
  end
  begin
     id 2 
     name lfemur
     direction 0.34202 -0.939693 0  
     length 7.31159  
     axis 0 0 20  XYZ
    dof rx ry rz
    limits (-160.0 20.0)
           (-70.0 70.0)
           (-60.0 70.0)
  end
  begin
     id 3 
     name ltibia
     direction 0.34202 -0.939693 0   
     length 7.33391   
     axis 0 0 20   XYZ
    dof rx
    limits (-10.0 170.0)
  end
  begin
     id 4 
     name lfoot
     direction 0.122263 -0.335914 0.933924   
     length 1.76083   
     axis -90 7.62852e-016 20   XYZ
    dof rx rz
    limits (-45.0 90.0)
           (-70.0 20.0)
  end
  begin
     id 5 
     name ltoes
     direction 1.53533e-011 -4.2177e-011 1   
     length 0.879206   
     axis -90 7.62852e-016 20   XYZ
    dof rx
    limits (-90.0 20.0)
  end
  begin
     id 6 
     name rhipjoint
     direction -0.646469 -0.721248 0.248754   
     length 2.37677  
     axis 0 0 0  XYZ 
  end
  begin
     id 7 
     name rfemur
     direction -0.34202 -0.939693 0   
     length 7.18623   
     axis 0 0 -20   XYZ
    dof rx ry rz
    limits (-160.0 20.0)
           (-70.0 70.0)
           (-70.0 60.0)
  end
  begin
     id 8 
     name rtibia
     direction -0.34202 -0.939693 0   
     length 7.36567   
     axis 0 0 -20   XYZ
    dof rx
    limits (-10.0 170.0)
 end
 begin
     id 9 
     name rfoot
     direction -0.126681 -0.348054 0.928876   
     length 1.71902  
     axis -90 -7.62852e-016 -20   XYZ
    dof rx rz
    limits (-45.0 90.0)
           (-20.0 70.0)
  end
  begin
     id 10 
     name rtoes
     direction -1.53551e-011 -4.21898e-011 1   
     length 0.857792   
     axis -90 -7.62852e-016 -20   XYZ
    dof rx
    limits (-90.0 20.0)
  end
  begin
     id 11 
     name lowerback
     direction 0.0106509 0.999778 0.0181844   
     length 2.07668   
     axis 0 0 0   XYZ
    dof rx ry rz
    limits (-20.0 45.0)
           (-30.0 30.0)
           (-30.0 30.0)
  end
  begin
     id 12 
     name upperback
     direction -0.00456018 0.999989 -0.000590935   
     length 2.08011   
     axis 0 0 0   XYZ
    dof rx ry rz
    limits (-20.0 45.0)
           (-30.0 30.0)
           (-30.0 30.0)
  end
  begin
     id 13 
     name thorax
     direction -0.00910382 0.999916 -0.00923765   
     length 2.07397   
     axis 0 0 0   XYZ
    dof rx ry rz
    limits (-20.0 45.0)
           (-30.0 30.0)
           (-30.0 30.0)
  end
  begin
     id 14 
     name lowerneck
     direction 0.00171967 0.99778 0.0665733   
     length 1.67556   
     axis 0 0 0   XYZ
    dof rx ry rz
    limits (-20.0 45.0)
           (-30.0 30.0)
           (-30.0 30.0)
  end
  begin
     id 15 
     name upperneck
     direction -0.0143166 0.991302 -0.130828   
     length 1.68462   
     axis 0 0 0   XYZ
    dof rx ry rz
    limits (-20.0 45.0)
           (-30.0 30.0)
           (-30.0 30.0)
  end
  begin
     id 16
     name head
     direction -0.00606378 0.998665 -0.0512995  
     length 1.69269  
     axis 0 0 0   XYZ
    dof rx ry rz
    limits (-20.0 45.0)
           (-30.0 30.0)
           (-30.0 30.0)
  end
  begin
     id 17 
     name lclavicle
     direction 0.9638 0.179341 0.197297  
     length 4.12888  
     axis 0 0 0   XYZ
    dof ry rz
    limits (-20.0 10.0)
           (0.0 20.0)
  end
  begin
     id 18 
     name lhumerus
     direction 1 -4.48972e-011 -2.47351e-027   
     length 5.01834   
     axis -180 -30 -90   XYZ
    dof rx ry rz
    limits (-60.0 90.0)
           (-90.0 90.0)
           (-90.0 90.0)
  end
  begin
     id 19
     name lradius
     direction 1 -4.48965e-011 1.51591e-026   
     length 3.4869   
     axis -180 -30 -90   XYZ
    dof rx
    limits (-10.0 170.0)
  end
  begin
     id 20
     name lwrist
     direction 1 -4.48957e-011 2.70032e-026   
     length 1.74345   
     axis -1.81515e-014 90 90   XYZ
    dof ry
    limits (-180.0 0.0)
 end
  begin
     id 21 
     name lhand
     direction 1 -4.48951e-011 5.40064e-026   
     length 0.76799   
     axis -3.44607e-014 90 90   XYZ
    dof rx rz
    limits (-90.0 90.0)
           (-45.0 45.0)
  end
  begin
     id 22 
     name lfingers
     direction 1 -4.48971e-011 1.08013e-025   
     length 0.619174   
     axis -6.89214e-014 90 90   XYZ
    dof rx
    limits (0.0 90.0)
  end
  begin
     id 23
     name lthumb
     direction 0.707107 -6.34931e-011 0.707107   
     length 0.889013   
     axis -90 45 2.85299e-015   XYZ
    dof rx rz
    limits (-45.0 45.0)
           (-45.0 45.0)
  end
  begin
     id 24 
     name rclavicle
     direction -0.961409 0.252588 0.109054   
     length 4.04305  
     axis 0 0 0   XYZ 
    dof ry rz
    limits (-10.0 20.0)
           (-20.0 0.0)
  end
  begin
     id 25 
     name rhumerus
     direction -1 -4.4897e-011 1.33872e-017  
     length 4.70164   
     axis -180 30 90   XYZ
    dof rx ry rz
    limits (-90.0 60.0)
           (-90.0 90.0)
           (-90.0 90.0)
  end
  begin
     id 26 
     name rradius
     direction -1 -4.48954e-011 1.83844e-026   
     length 3.49911   
     axis -180 30 90   XYZ
    dof rx
    limits (-10.0 170.0)
  end
  begin
     id 27 
     name rwrist
     direction -1 -4.49008e-011 2.70032e-026   
     length 1.74955   
     axis -1.81515e-014 -90 -90   XYZ
    dof ry
    limits (-180.0 0.0)
  end
  begin
     id 28
     name rhand
     direction -1 -4.48916e-011 5.40064e-026   
     length 0.739335   
     axis -3.44607e-014 -90 -90   XYZ
    dof rx rz
    limits (-90.0 90.0)
           (-45.0 45.0)
  end
  begin
     id 29
     name rfingers
     direction -1 -4.48987e-011 1.08013e-025   
     length 0.596071   
     axis -6.89214e-014 -90 -90   XYZ
    dof rx
    limits (0.0 90.0)
  end
  begin
     id 30
     name rthumb
     direction -0.707107 -6.34935e-011 0.707107   
     length 0.855843   
     axis -90 -45 -2.85299e-015   XYZ
    dof rx rz
    limits (-45.0 45.0)
           (-45.0 45.0)
  end
:hierarchy
  begin
    root lhipjoint rhipjoint lowerback
    lhipjoint lfemur
    lfemur ltibia
    ltibia lfoot
    lfoot ltoes
    rhipjoint rfemur
    rfemur rtibia
    rtibia rfoot
    rfoot rtoes
    lowerback upperback
    upperback thorax
    thorax lowerneck lclavicle rclavicle
    lowerneck upperneck
    upperneck head
    lclavicle lhumerus
    lhumerus lradius
    lradius lwrist
    lwrist lhand lthumb
    lhand lfingers
    rclavicle rhumerus
    rhumerus rradius
    rradius rwrist
    rwrist rhand rthumb
    rhand rfingers
  end

#!OML:ASF I:\salsa\salsa 7_09\Patient 1\Session 1\dancermale.ASF
:FULLY-SPECIFIED
:DEGREES
412
root -0.52501 17.0327 -0.143769 495.77 98.8483 489.174
lowerback -0.923701 -0.428577 5.53107
upperback 0.516776 -0.639521 1.27029
thorax 1.00376 -0.277568 -1.80413
lowerneck -5.00324 1.8705 2.95803
upperneck 12.3236 2.67554 -2.58707
head 4.58541 1.34692 -1.13145
rclavicle 1.78906e-014 -3.10104e-014
rhumerus -34.8107 34.4934 -110.612
rradius 101.124
rwrist 8.54969
rhand -27.3256 8.62721
rfingers 7.12502
rthumb -0.734535 -21.3513
lclavicle 1.78906e-014 -3.10104e-014
lhumerus -50.1989 -19.5384 107.121
lradius 86.9485
lwrist 33.0524
lhand -29.7367 46.3778
lfingers 7.12502
lthumb -3.06322 76.3356
rfemur -21.6225 -3.11161 32.7828
rtibia 32.2835
rfoot -18.8165 -2.5184
rtoes 0.918052
lfemur -31.521 11.3054 -10.9021
ltibia 67.6116
lfoot -17.1491 5.97847
ltoes 0.419732
413
root -0.460425 17.0276 -0.0949237 503.074 99.7494 496.987
lowerback -0.441862 0.0907263 4.17121
upperback 0.868393 0.0842465 1.56273
thorax 1.14257 0.0805561 -0.732613
lowerneck -5.18357 1.7851 3.09266
upperneck 12.0968 2.59245 -3.08872
head 4.55155 1.27967 -1.31164
rclavicle -3.75703e-014 -1.88845e-014
rhumerus -34.1374 34.5905 -111.897
rradius 100.983
rwrist 8.85032
rhand -27.1997 8.8714
rfingers 7.12502
rthumb -0.612932 -21.1075
lclavicle -3.75703e-014 -1.88845e-014
lhumerus -53.0432 -19.0963 106.775
lradius 89.1708
lwrist 32.3995
lhand -29.8075 46.0797
lfingers 7.12502
lthumb -3.13159 76.0365
rfemur -21.2046 -3.47341 32.6944
rtibia 33.1346
rfoot -18.8253 -1.03935
rtoes 3.66338
lfemur -31.4499 12.2126 -10.9093
ltibia 68.0032
lfoot -17.1619 6.52102
ltoes 0.910156
414
root -0.471571 17.0139 -0.0818429 506.334 99.8701 499.503
lowerback -0.289073 0.335553 3.17271
upperback 0.704278 0.431395 1.84424
thorax 0.892866 0.24014 0.116632
lowerneck -5.33214 1.66304 3.19367
upperneck 11.8674 2.44902 -3.47502
head 4.50717 1.18856 -1.45445
rclavicle -8.87077e-015 -1.05356e-014
rhumerus -33.9961 34.5989 -113.15
rradius 100.958
rwrist 8.96356
rhand -27.1677 9.28556
rfingers 7.12502
rthumb -0.582013 -20.6934
lclavicle -8.87077e-015 -1.05356e-014
lhumerus -55.5037 -18.9174 106.538
lradius 91.1803
lwrist 31.7053
lhand -29.7482 46.4591
lfingers 7.12502
lthumb -3.07427 76.4167
rfemur -22.7308 -4.4413 32.6058
rtibia 34.3402
rfoot -18.7388 0.248722
rtoes 6.44488
lfemur -33.6128 11.6834 -11.4324
ltibia 68.7607
lfoot -17.1411 6.50788
ltoes 0.554622
415
root -0.453312 17.0176 -0.0801774 510.284 100.439 502.816
lowerback -0.396956 0.804723 2.48794
upperback 0.668205 1.05843 2.05221
thorax 0.913088 0.548481 0.720902
lowerneck -5.57398 1.44732 2.87927
upperneck 11.733 2.15058 -3.28644
head 4.49134 1.03458 -1.36011
rclavicle 1.81143e-014 1.36167e-014
rhumerus -34.39 34.3681 -114.396
rradius 100.938
rwrist 9.14622
rhand -27.3068 9.88513
rfingers 7.12502
rthumb -0.716361 -20.0934
lclavicle 1.81143e-014 1.36167e-014
lhumerus -57.6952 -19.1069 106.348
lradius 92.9615
lwrist 31.3591
lhand -29.8316 46.4865
lfingers 7.12502
lthumb -3.15479 76.4429
rfemur -23.6822 -4.93771 32.5741
rtibia 34.8585
rfoot -18.459 1.29615
rtoes 7.10479
lfemur -35.0396 11.3573 -11.7803
ltibia 68.5818
lfoot -16.7548 6.09781
ltoes -0.892585
416
root -0.436695 17.0398 -0.0863571 512.886 100.78 504.876
lowerback -0.298875 1.25155 1.98572
upperback 0.600874 1.66408 2.19023
thorax 0.774108 0.847013 1.14697
lowerneck -5.58054 1.16039 2.69526
upperneck 11.3492 1.77119 -3.33753
head 4.36184 0.83584 -1.36686
rclavicle 7.46685e-015 -2.59911e-014
rhumerus -35.431 33.7637 -115.599
rradius 100.982
rwrist 9.41219
rhand -27.2646 10.4422
rfingers 7.12502
rthumb -0.67563 -19.5365
lclavicle 7.46685e-015 -2.59911e-014
lhumerus -59.776 -19.7149 106.314
lradius 94.6099
lwrist 31.2403
lhand -29.9805 45.59
lfingers 7.12502
lthumb -3.29865 75.5442
rfemur -24.1632 -5.259 32.5041
rtibia 34.7107
rfoot -17.8255 1.80264
rtoes 7.2385
lfemur -36.0565 10.7059 -12.1064
ltibia 67.8069
lfoot -15.5848 5.39956
ltoes -2.13482
417
root -0.413395 17.0932 -0.0893204 510.904 100.213 502.921
lowerback 0.33659 1.35877 1.66987
upperback 0.719015 1.82964 2.41823
thorax 0.520708 0.928645 1.54346
lowerneck -5.84679 0.79329 2.42238
upperneck 11.258 1.30022 -3.40309
head 4.36259 0.585795 -1.36716
rclavicle 6.58901e-015 1.46153e-014
rhumerus -36.8861 32.9963 -116.574
rradius 101.007
rwrist 9.68838
rhand -27.182 10.8193
rfingers 7.12502
rthumb -0.595829 -19.1596
lclavicle 6.58901e-015 1.46153e-014
lhumerus -61.4241 -20.5315 106.427
lradius 96.0408
lwrist 31.0577
lhand -30.0923 44.9806
lfingers 7.12502
lthumb -3.40659 74.9331
rfemur -23.3475 -5.87076 32.4299
rtibia 33.372
rfoot -16.8094 1.51653
rtoes 7.49396
lfemur -36.2439 9.04279 -12.1075
ltibia 66.5133
lfoot -13.5288 4.08734
ltoes -1.79592
418
root -0.417937 17.1386 -0.126953 512.704 100.571 503.806
lowerback 0.402693 1.90621 1.71528
upperback 0.523096 2.57013 2.51769
thorax 0.26965 1.29923 1.61367
lowerneck -5.88074 0.306352 2.29522
upperneck 10.3065 0.651246 -3.65542
head 4.50099 0.259926 -1.61419
rclavicle 4.5472e-015 -3.67752e-015
rhumerus -38.56 32.0257 -117.205
rradius 100.956
rwrist 9.87773
rhand -27.2526 11.0241
rfingers 7.12502
rthumb -0.664028 -18.9546
lclavicle 4.5472e-015 -3.67752e-015
lhumerus -62.6824 -21.3886 106.595
lradius 97.5372
lwrist 30.9439
lhand -30.0023 45.043
lfingers 7.12502
lthumb -3.31972 74.9969
rfemur -24.0531 -5.20125 32.4182
rtibia 32.6274
rfoot -15.5801 1.67101
rtoes 8.90296
lfemur -37.0062 8.8476 -12.359
ltibia 64.4334
lfoot -10.495 2.60339
ltoes 1.82583
419
root -0.414825 17.2064 -0.164051 512.881 100.554 503.233
lowerback 0.612383 2.319 1.844
upperback 0.358765 3.13613 2.57877
thorax -0.0214728 1.58257 1.5892
lowerneck -5.91398 -0.103739 1.79414
upperneck 10.0359 0.102667 -3.33255
head 4.38368 -0.0155542 -1.44009
rclavicle 3.10601e-015 1.0635e-014
rhumerus -40.4738 30.8998 -117.632
rradius 100.847
rwrist 10.0459
rhand -27.2412 11.0761
rfingers 7.12502
rthumb -0.653017 -18.9026
lclavicle 3.10601e-015 1.0635e-014
lhumerus -63.6855 -22.1773 106.739
lradius 99.208
lwrist 30.7277
lhand -29.6385 45.114
lfingers 7.12502
lthumb -2.9683 75.0731
rfemur -24.2021 -4.51431 32.2717
rtibia 31.3322
rfoot -14.2878 1.49697
rtoes 9.9309
lfemur -37.2332 8.61491 -12.6593
ltibia 62.9119
lfoot -8.92281 2.78714
ltoes 2.5288
420
root -0.400898 17.2956 -0.201746 512.248 100.159 502.016
lowerback 0.870147 2.56717 1.97938
upperback 0.259292 3.48161 2.56324
thorax -0.263685 1.75468 1.47977
lowerneck -5.50635 -0.454722 1.59611
upperneck 9.23691 -0.376401 -3.3098
head 3.99937 -0.255796 -1.40759
rclavicle -6.80837e-015 -1.39149e-014
rhumerus -42.5726 29.687 -117.941
rradius 100.64
rwrist 10.2432
rhand -27.1798 11.071
rfingers 7.12502
rthumb -0.593779 -18.9079
lclavicle -6.80837e-015 -1.39149e-014
lhumerus -64.335 -22.8549 106.833
lradius 100.712
lwrist 30.0346
lhand -29.0376 44.937
lfingers 7.12502
lthumb -2.388 74.9033
rfemur -23.8816 -4.02865 31.8715
rtibia 29.5666
rfoot -12.879 1.05731
rtoes 9.26681
lfemur -36.9044 8.14088 -13.0344
ltibia 61.4045
lfoot -8.86039 3.36246
ltoes 0.1766
421
root -0.383715 17.4004 -0.249403 512.298 99.7352 501.26
lowerback 0.982016 2.81434 2.13401
upperback 0.0417443 3.82303 2.46279
thorax -0.536318 1.92292 1.27431
lowerneck -5.05075 -0.836401 1.5508
upperneck 8.45973 -0.898916 -3.39322
head 3.6199 -0.515641 -1.43615
rclavicle 1.97294e-014 1.59028e-015
rhumerus -44.7926 28.267 -117.999
rradius 100.323
rwrist 10.4907
rhand -26.865 11.0475
rfingers 7.12502
rthumb -0.289695 -18.932
lclavicle 1.97294e-014 1.59028e-015
lhumerus -64.8378 -23.417 107.02
lradius 102.086
lwrist 29.1266
lhand -28.6736 44.7008
lfingers 7.12502
lthumb -2.03645 74.6708
rfemur -23.7249 -3.49393 31.2576
rtibia 27.6256
rfoot -11.3462 0.448659
rtoes 7.97191
lfemur -36.0404 7.77556 -13.5159
ltibia 58.2205
lfoot -8.67511 3.92577
ltoes -2.53004
